<?xml version="1.0" encoding="UTF-8" standalone="no"?>
<!DOCTYPE svg PUBLIC "-//W3C//DTD SVG 1.1//EN"
 "http://www.w3.org/Graphics/SVG/1.1/DTD/svg11.dtd">
<!-- Generated by graphviz version 2.38.0 (20140413.2041)
 -->
<!-- Title: models_diagram Pages: 1 -->
<svg width="314pt" height="153pt"
 viewBox="0.00 0.00 314.18 153.00" xmlns="http://www.w3.org/2000/svg" xmlns:xlink="http://www.w3.org/1999/xlink">
<g id="graph0" class="graph" transform="scale(1 1) rotate(0) translate(4 149)">
<title>models_diagram</title>
<polygon fill="none" stroke="none" points="-4,4 -4,-149 310.175,-149 310.175,4 -4,4"/>
<!-- _diagram_info -->
<g id="node1" class="node"><title>_diagram_info</title>
<text text-anchor="start" x="8" y="-130.6" font-family="Times,serif" font-size="13.00">Models diagram</text>
<text text-anchor="start" x="8" y="-117.6" font-family="Times,serif" font-size="13.00">Date: Apr 08 2016 &#45; 21:59</text>
<text text-anchor="start" x="8" y="-104.6" font-family="Times,serif" font-size="13.00">Migration version: 20160408231353</text>
<text text-anchor="start" x="8" y="-91.6" font-family="Times,serif" font-size="13.00">Generated by RailRoady 1.4.2</text>
<text text-anchor="start" x="8" y="-78.6" font-family="Times,serif" font-size="13.00">http://railroady.prestonlee.com</text>
</g>
<!-- Inventory -->
<g id="node2" class="node"><title>Inventory</title>
<ellipse fill="none" stroke="black" cx="261.688" cy="-18" rx="44.475" ry="18"/>
<text text-anchor="middle" x="261.688" y="-13.8" font-family="Times,serif" font-size="14.00">Inventory</text>
</g>
<!-- Worker -->
<g id="node3" class="node"><title>Worker</title>
<ellipse fill="none" stroke="black" cx="261.688" cy="-108.5" rx="36.3169" ry="18"/>
<text text-anchor="middle" x="261.688" y="-104.3" font-family="Times,serif" font-size="14.00">Worker</text>
</g>
<!-- Worker&#45;&gt;Inventory -->
<g id="edge1" class="edge"><title>Worker&#45;&gt;Inventory</title>
<path fill="none" stroke="#ebec46" d="M261.688,-82.189C261.688,-70.9711 261.688,-57.7517 261.688,-46.3113"/>
<ellipse fill="none" stroke="#ebec46" cx="261.688" cy="-86.4363" rx="4" ry="4"/>
<polygon fill="#ebec46" stroke="#ebec46" points="261.688,-46.0113 266.188,-36.0113 261.688,-41.0113 261.688,-36.0113 261.688,-36.0113 261.688,-36.0113 261.688,-41.0113 257.188,-36.0113 261.688,-46.0113 261.688,-46.0113"/>
</g>
</g>
</svg>
