<?xml version="1.0" encoding="UTF-8" standalone="no"?>
<!DOCTYPE svg PUBLIC "-//W3C//DTD SVG 1.1//EN"
 "http://www.w3.org/Graphics/SVG/1.1/DTD/svg11.dtd">
<!-- Generated by graphviz version 2.38.0 (20140413.2041)
 -->
<!-- Title: models_diagram Pages: 1 -->
<svg width="256pt" height="137pt"
 viewBox="0.00 0.00 255.72 137.00" xmlns="http://www.w3.org/2000/svg" xmlns:xlink="http://www.w3.org/1999/xlink">
<g id="graph0" class="graph" transform="scale(1 1) rotate(0) translate(4 133)">
<title>models_diagram</title>
<polygon fill="none" stroke="none" points="-4,4 -4,-133 251.725,-133 251.725,4 -4,4"/>
<!-- Inventory -->
<g id="node1" class="node"><title>Inventory</title>
<path fill="none" stroke="black" d="M12,-0.5C12,-0.5 235.725,-0.5 235.725,-0.5 241.725,-0.5 247.725,-6.5 247.725,-12.5 247.725,-12.5 247.725,-116.5 247.725,-116.5 247.725,-122.5 241.725,-128.5 235.725,-128.5 235.725,-128.5 12,-128.5 12,-128.5 6,-128.5 0,-122.5 0,-116.5 0,-116.5 0,-12.5 0,-12.5 0,-6.5 6,-0.5 12,-0.5"/>
<text text-anchor="middle" x="123.862" y="-113.3" font-family="Times,serif" font-size="14.00">Inventory</text>
<polyline fill="none" stroke="black" points="0,-106.5 247.725,-106.5 "/>
<text text-anchor="start" x="8" y="-91.3" font-family="Times,serif" font-size="14.00">description :character varying</text>
<text text-anchor="start" x="8" y="-77.3" font-family="Times,serif" font-size="14.00">sku :character varying</text>
<text text-anchor="start" x="8" y="-63.3" font-family="Times,serif" font-size="14.00">wheel_size :integer</text>
<text text-anchor="start" x="8" y="-49.3" font-family="Times,serif" font-size="14.00">id :integer</text>
<text text-anchor="start" x="8" y="-35.3" font-family="Times,serif" font-size="14.00">created_at :timestamp without time zone</text>
<text text-anchor="start" x="8" y="-21.3" font-family="Times,serif" font-size="14.00">updated_at :timestamp without time zone</text>
<text text-anchor="start" x="8" y="-7.3" font-family="Times,serif" font-size="14.00">genre_id :integer</text>
</g>
</g>
</svg>
